<svg xmlns="http://www.w3.org/2000/svg" width="43.3" height="43.907" viewBox="0 0 43.3 43.907"><g transform="translate(-27 -177.093)" opacity="0.89"><path d="M138.224,636.2S126.61,629,119.09,646.611c0,0,10.336,6.862,20.5-5.921Z" transform="translate(-161.597 818.562) rotate(-149)" fill="#586276"/><path d="M125.185,595.07s-14.245-6.5-21.155,11.888c0,0,11,7.572,22.451-7.241Z" transform="translate(446.043 -269.745) rotate(52)" fill="#586276"/><path d="M115.756,555.628s-10.2-11.931-25.556,0c0,0,9.673,10.469,25.556,3.048Z" transform="translate(486.712 556.568) rotate(141)" fill="#586276"/><path d="M149.52,591.112s8.746-12.986,24.25-.947c0,0-5.433,12.191-22.925,5.566Z" transform="translate(572.514 509.581) rotate(135)" fill="#586276"/><path d="M145.6,553.318s10.2-11.931,25.556,0c0,0-9.673,10.469-25.556,3.048Z" transform="matrix(0.342, 0.94, -0.94, 0.342, 517.23, -131.032)" fill="#586276"/></g></svg>