<svg xmlns="http://www.w3.org/2000/svg" width="477.773" height="319.791" viewBox="0 0 477.773 319.791"><path d="M379.479,122.16c-30.629-1.065-59.806-10.951-87.662-21.77S236.37,77.584,206.474,71.853c-19.229-3.687-41.221-4.207-56.711,6.1-14.912,9.938-19.73,27.047-22.319,42.939-1.95,11.955-3.1,24.534,2.248,35.726,3.706,7.771,10.289,14.3,14.837,21.77,15.84,25.9,4.647,57.832-12.518,83.119-8.045,11.865-17.392,23.19-23.6,35.807s-9.087,27.094-3.654,39.976c5.39,12.778,18.23,22.357,32.134,29.1,28.249,13.7,61.524,17.619,93.994,19.839,71.855,4.917,144.089,2.788,216.133.658,26.664-.79,53.441-1.59,79.669-5.712,14.567-2.291,29.6-5.92,40.18-14.695,13.422-11.136,16.749-30,7.757-43.956-15.092-23.422-56.791-29.238-67.354-54.378-5.8-13.833.161-29.243,8.594-42.078,18.1-27.525,48.429-51.675,50.028-83.138,1.1-21.614-13.488-43.251-36.034-53.478-23.63-10.757-56.408-9.394-73.833,8.348C438.068,116.084,406.521,123.1,379.479,122.16Z" transform="translate(-101.886 -69.438)" fill="#586276" opacity="0.1"/></svg>